<?xml version="1.0" encoding="utf-8"?>
<!-- Generator: Adobe Illustrator 22.0.1, SVG Export Plug-In . SVG Version: 6.00 Build 0)  -->
<!DOCTYPE svg PUBLIC "-//W3C//DTD SVG 1.1//EN" "http://www.w3.org/Graphics/SVG/1.1/DTD/svg11.dtd">
<svg version="1.1" id="Ebene_1" xmlns="http://www.w3.org/2000/svg" xmlns:xlink="http://www.w3.org/1999/xlink" x="0px" y="0px"
	 viewBox="0 0 622.3 157.3" width="622" height="157" style="enable-background:new 0 0 622.3 157.3;" xml:space="preserve">
<style type="text/css">
	.st0{fill:#009FE3;}
	.st1{fill:#1D1D1B;}
	.st2{fill-rule:evenodd;clip-rule:evenodd;fill:#1D1D1B;}
	.st3{fill:none;stroke:#009FE3;stroke-width:29.9398;stroke-miterlimit:2.6131;}
</style>
<g>
	<path class="st0" d="M37.1,73.7c-3,15-9.1,19.6-18.8,19.6c-5.1,0-9.6-0.8-13.1-1.8L0,115.4c3.8,1.7,11.9,2.7,19,2.7
		c27,0,39.9-11.9,45.3-40.9l13.8-72H50L37.1,73.7L37.1,73.7z M152.5,116.2c-0.3-10.6,1.5-27.2,3.1-35.9l8.7-42.5
		c-7.3-2.3-18.5-4.5-28.8-4.5c-41.9,0-59,28.8-59,55.9c0,17.6,10.6,28.9,25.1,28.9c8.6,0,18.6-3.8,25.6-15.9h0.5
		c-0.2,4.6-0.5,9.4-0.8,14H152.5L152.5,116.2z M129.4,71.2c-3.5,19.1-10.4,24.2-15.5,24.2c-4.8,0-8.1-4-8.1-11.5
		c0-11.9,8.7-29.5,21.8-29.5c1.5,0,3.5,0.2,5.3,0.5L129.4,71.2L129.4,71.2z M112.9,26c7.6,0,13.8-5.1,13.8-13.8
		c0-7.1-4.8-12.2-12-12.2c-7.9,0-14.2,5.4-14.2,14c0,7.6,5.8,12,12.2,12H112.9L112.9,26z M148.4,26c7.6,0,13.8-5.1,13.8-13.8
		c0-7.1-4.8-12.2-12-12.2C142.3,0,136,5.4,136,14c0,7.6,5.8,12,12.2,12H148.4L148.4,26z M166.9,145.8c5.8,3,16.2,4.9,27.4,4.9
		c11.5,0,23.6-2.1,32.6-9.2c10.2-7.9,14.7-21.9,17.3-36l12.2-66.6c-9.4-3.6-19.5-5.6-31.8-5.6c-36.9,0-55.6,26.4-55.4,52.8
		c0.2,16.5,10.6,29.2,26.5,29.2c8.9,0,15.2-3.1,21.1-9.7h0.3l-1,4.5c-2.6,13.9-10.9,18.5-21.9,18.5c-6.1,0-16.7-1.6-21.1-4.1
		L166.9,145.8L166.9,145.8z M222.3,75c-2.3,12.7-8.4,18.8-14.3,18.8c-5.3,0-9.1-4.1-9.1-12c0-13.4,8.7-27.2,20.6-27.2
		c2.3,0,4.9,0.3,6.4,0.8L222.3,75L222.3,75z M329.1,91.3c-6.9,3.3-14.7,4.9-22.9,4.9c-6.4,0-11.4-1.5-14.5-4.3
		c-1.5-1.5-2.5-3.5-2.8-5.3c33.3,1,51.8-7.4,51.8-27.7c0-16.5-13.2-25.7-30.2-25.7c-30.5,0-48.3,24.9-48.3,49.6
		c0,22.6,13,35,36.9,35c8.1,0,20.8-1.2,31.7-6.5L329.1,91.3L329.1,91.3z M314.4,59c0,5.1-5.9,7.6-23.1,7.4
		c0.8-5.3,5.8-12.9,15.8-12.9c4.6,0,7.3,2.5,7.3,5.3V59L314.4,59z M371.8,116.2l5.1-27.7c2.8-14.8,8.6-27.9,25.1-27.9
		c1.3,0,2.6,0,3.8,0l5.4-27.2c-1.5-0.2-3.1-0.2-4.6-0.2c-11.2,0-20.4,7.4-26.4,18h-0.5c0.5-5.3,0.8-10.7,1.2-16.2h-24.2
		c-0.8,6.8-1.8,21.6-4.1,34.6l-8.9,46.5H371.8L371.8,116.2z"/>
	<path class="st1" d="M246.1,127.4v22.8h2.9v-10.7h10.7v10.7h2.9v-22.8h-2.9v9.5H249v-9.5H246.1L246.1,127.4z M270.6,150.2v-16.4
		h-2.9v16.4H270.6L270.6,150.2z M269.1,130.8c0.6,0,1-0.2,1.4-0.6c0.3-0.4,0.5-0.8,0.5-1.3c0-0.6-0.2-1-0.5-1.3
		c-0.3-0.4-0.8-0.5-1.3-0.5c-0.6,0-1,0.2-1.3,0.5c-0.4,0.3-0.5,0.8-0.5,1.3c0,0.5,0.2,1,0.5,1.3
		C268.1,130.6,268.5,130.8,269.1,130.8L269.1,130.8L269.1,130.8z M288.8,138.3c0-1.9,0-3.4,0.1-4.5l-2.5,0l-0.1,2.4h-0.1
		c-0.4-0.7-0.9-1.3-1.7-1.9c-0.8-0.6-1.9-0.9-3.3-0.9c-1.9,0-3.5,0.8-4.9,2.2c-1.5,1.5-2.2,3.6-2.2,6.4c0,2.3,0.7,4.2,1.9,5.7
		c1.2,1.5,2.8,2.3,4.8,2.3c1.2,0,2.3-0.3,3.1-0.8c0.9-0.5,1.5-1.1,1.9-1.9h0.1v1.8c0,2-0.5,3.5-1.4,4.4c-0.9,0.9-2.2,1.4-3.7,1.4
		c-2,0-3.6-0.5-4.7-1.3l-0.7,2.3c0.7,0.5,1.5,0.8,2.4,1c0.9,0.3,1.9,0.4,2.9,0.4c1,0,2.1-0.2,3.1-0.5c1-0.3,1.9-0.8,2.7-1.5
		c0.8-0.7,1.4-1.7,1.7-2.9c0.3-1.2,0.5-2.7,0.5-4.6V138.3L288.8,138.3z M285.9,143.2c0,0.6-0.1,1.1-0.2,1.6c-0.3,1-0.8,1.7-1.5,2.3
		c-0.7,0.6-1.6,0.8-2.5,0.8c-1.5,0-2.7-0.6-3.5-1.8c-0.8-1.1-1.2-2.5-1.2-4.1c0-1.9,0.5-3.5,1.3-4.6c0.9-1.1,2-1.7,3.4-1.7
		c1.1,0,2,0.3,2.7,0.9c0.7,0.6,1.1,1.4,1.4,2.3c0.1,0.4,0.2,0.9,0.2,1.3V143.2L285.9,143.2z M293.8,150.2h2.9v-9.9
		c0-0.6,0-1,0.2-1.4c0.3-0.8,0.8-1.5,1.5-2.1c0.7-0.6,1.5-0.9,2.4-0.9c1.4,0,2.3,0.5,2.9,1.4c0.5,0.9,0.8,2.1,0.8,3.5v9.4h2.9v-9.7
		c0-1.4-0.2-2.6-0.6-3.5c-0.4-0.9-0.8-1.6-1.4-2.1c-0.6-0.5-1.2-0.9-1.8-1.1c-0.6-0.2-1.2-0.3-1.8-0.3c-1.1,0-2.1,0.3-2.9,0.8
		c-0.9,0.5-1.6,1.2-2.1,2.1h-0.1v-10.2h-2.9V150.2L293.8,150.2z M319.8,150.2h2.8v-9.1c0.7,0.2,1.4,0.2,2.3,0.2
		c2.9,0,5.1-0.8,6.8-2.5c1.2-1.2,1.7-2.8,1.7-4.9c0-2.1-0.7-3.7-2-4.8c-1.3-1.2-3.4-1.9-6.2-1.9c-2.3,0-4.1,0.2-5.5,0.5V150.2
		L319.8,150.2z M322.7,129.8c0.5-0.1,1.4-0.2,2.7-0.2c1.6,0,2.9,0.4,3.8,1.1c0.9,0.7,1.4,1.9,1.4,3.4c-0.1,3.2-1.9,4.8-5.6,4.9
		c-0.9,0-1.7-0.1-2.4-0.2V129.8L322.7,129.8z M349.3,142.6c0.1-0.3,0.1-0.8,0.1-1.4c0-0.8-0.1-1.6-0.3-2.5c-0.2-0.9-0.6-1.7-1.1-2.5
		c-0.5-0.8-1.1-1.4-2-2c-0.8-0.5-1.9-0.7-3.2-0.7c-2.3,0-4.1,0.9-5.4,2.5c-1.4,1.6-2,3.7-2,6.3c0,2.5,0.7,4.5,2.1,5.9
		c1.4,1.5,3.3,2.3,5.7,2.3c1.3,0,2.4-0.1,3.2-0.4c0.9-0.2,1.6-0.4,2.1-0.7l-0.5-2.1c-0.5,0.2-1.1,0.4-1.8,0.5
		c-0.4,0.1-0.7,0.1-1.2,0.2c-0.4,0.1-0.9,0.1-1.4,0.1c-1.5,0-2.7-0.5-3.7-1.4c-1-0.9-1.6-2.4-1.7-4.3L349.3,142.6L349.3,142.6z
		 M338.2,140.4c0-0.3,0.1-0.6,0.2-0.8c0.1-0.3,0.1-0.6,0.2-0.8c0.2-0.6,0.5-1.1,0.8-1.6c0.7-1.1,1.7-1.6,3.2-1.6
		c0.8,0,1.5,0.2,2,0.5c0.5,0.3,0.9,0.7,1.2,1.2c0.6,1.1,0.8,2.1,0.8,3.2H338.2L338.2,140.4z M353.1,150.2h2.9v-8.7
		c0-0.5,0-1,0.1-1.4c0.2-1.1,0.6-2.1,1.3-2.7c0.7-0.7,1.5-1.1,2.5-1.1c0.4,0,0.7,0,1,0.1v-2.8c-0.2-0.1-0.5-0.1-0.8-0.1
		c-1,0-1.8,0.3-2.7,1c-0.8,0.6-1.4,1.5-1.8,2.6h-0.1l-0.1-3.2H353c0.1,1.5,0.1,3.2,0.1,5.1L353.1,150.2L353.1,150.2z M368,150.2
		v-14.1h3.8v-2.2h-3.8V133c0-1.3,0.2-2.4,0.7-3.3c0.4-0.9,1.2-1.4,2.4-1.4c0.8,0,1.4,0.1,1.9,0.4l0.4-2.3c-0.6-0.3-1.4-0.4-2.5-0.5
		c-1.4,0-2.7,0.5-3.8,1.5c-0.7,0.6-1.1,1.5-1.4,2.5c-0.3,1-0.5,2.1-0.5,3.3v0.8h-2.2v2.2h2.2v14.1H368L368,150.2z M380.4,150.6
		c2,0,3.8-0.7,5.4-2.1c1.6-1.4,2.4-3.6,2.5-6.6c0-2.5-0.7-4.6-2.1-6.1c-1.4-1.5-3.2-2.3-5.5-2.3c-2.2,0-4.1,0.8-5.5,2.3
		c-1.5,1.5-2.3,3.6-2.3,6.4c0,2.6,0.8,4.6,2.2,6.1C376.4,149.8,378.2,150.5,380.4,150.6L380.4,150.6L380.4,150.6z M380.5,148.4
		c-1.4,0-2.5-0.6-3.4-1.8c-0.9-1.2-1.3-2.7-1.3-4.5c0-1.6,0.4-3.1,1.2-4.4c0.8-1.3,2-2,3.7-2c1.7,0.1,2.9,0.7,3.7,2.1
		c0.7,1.3,1.1,2.7,1.1,4.2c0,1.9-0.5,3.4-1.3,4.6C383,147.7,381.9,148.3,380.5,148.4L380.5,148.4L380.5,148.4z M392.1,150.2h2.9
		v-8.7c0-0.5,0-1,0.1-1.4c0.2-1.1,0.6-2.1,1.3-2.7c0.7-0.7,1.5-1.1,2.5-1.1c0.4,0,0.7,0,1,0.1v-2.8c-0.2-0.1-0.5-0.1-0.8-0.1
		c-1,0-1.8,0.3-2.7,1c-0.8,0.6-1.4,1.5-1.8,2.6h-0.1l-0.1-3.2H392c0.1,1.5,0.1,3.2,0.1,5.1L392.1,150.2L392.1,150.2z M402.7,150.2
		h2.8v-9.9c0-0.5,0.1-1,0.2-1.5c0.2-0.8,0.7-1.5,1.4-2.1c0.7-0.6,1.4-0.9,2.4-0.9c1.2,0,2,0.4,2.6,1.2c0.6,0.8,0.9,1.9,0.9,3.3v9.8
		h2.8V140c0-0.6,0.1-1,0.2-1.5c0.3-0.7,0.8-1.4,1.4-1.9c0.6-0.5,1.4-0.8,2.2-0.8c2.4,0,3.6,1.7,3.6,5v9.3h2.8v-9.6
		c0-1.4-0.2-2.6-0.5-3.5c-0.3-0.9-0.8-1.6-1.3-2.2c-0.5-0.5-1.1-0.9-1.8-1.1c-0.6-0.2-1.2-0.3-1.8-0.3c-0.8,0-1.4,0.1-2,0.3
		c-0.6,0.2-1.1,0.5-1.6,0.9c-0.7,0.5-1.3,1.2-1.9,2.1h-0.1c-0.4-1-0.9-1.8-1.7-2.3c-0.8-0.6-1.7-0.9-2.9-0.9c-1.3,0-2.4,0.3-3.2,0.9
		c-0.8,0.6-1.5,1.3-1.9,2.1h-0.1l-0.1-2.6h-2.6c0.1,1.3,0.1,2.8,0.1,4.4V150.2L402.7,150.2z M442,140.2c0-0.9-0.1-1.7-0.2-2.5
		c-0.2-0.8-0.5-1.5-0.9-2.1c-0.4-0.7-1.1-1.2-1.8-1.6c-0.8-0.4-1.8-0.5-3-0.5c-2.1,0-3.9,0.5-5.2,1.4l0.7,2c1.2-0.8,2.6-1.2,4.2-1.2
		c0.8,0,1.5,0.1,2,0.3c0.5,0.3,0.9,0.6,1.1,1c0.2,0.4,0.4,0.8,0.5,1.2c0,0.5,0.1,0.9,0.1,1.2v0.3c-6.3,0-9.5,2.1-9.5,6.1
		c0,1.2,0.4,2.3,1.2,3.2c0.8,0.9,2,1.4,3.6,1.5c1.2,0,2.1-0.3,3-0.8c0.8-0.5,1.5-1,1.9-1.7h0.1l0.3,2.1h2.6
		c-0.2-1.1-0.2-2.5-0.2-3.9V140.2L442,140.2z M439.2,144.7c0,0.3,0,0.6-0.1,1c-0.2,0.7-0.7,1.3-1.3,1.9c-0.7,0.6-1.5,0.9-2.6,0.9
		c-0.7,0-1.4-0.2-1.9-0.7c-0.5-0.5-0.8-1.2-0.8-2.1c0-0.8,0.2-1.5,0.6-2c0.4-0.5,0.9-0.9,1.6-1.1c0.7-0.3,1.4-0.5,2.2-0.5
		c0.8-0.1,1.6-0.1,2.3-0.1V144.7L439.2,144.7z M446.8,150.2h2.9v-9.9c0-0.5,0.1-1,0.2-1.4c0.3-0.9,0.8-1.6,1.5-2.2
		c0.7-0.6,1.5-0.9,2.4-0.9c1.4,0,2.3,0.5,2.9,1.4c0.5,1,0.8,2.1,0.8,3.5v9.4h2.9v-9.8c0-1.4-0.2-2.6-0.6-3.5
		c-0.4-0.9-0.8-1.6-1.4-2.1c-0.6-0.5-1.2-0.9-1.8-1.1c-0.6-0.2-1.3-0.3-1.8-0.3c-1.3,0-2.4,0.3-3.3,0.9c-0.9,0.6-1.5,1.3-1.9,2.1
		h-0.1l-0.2-2.7h-2.6c0.1,1.3,0.1,2.8,0.1,4.4V150.2L446.8,150.2z M476,147.4c-0.4,0.2-0.9,0.3-1.4,0.5c-0.6,0.2-1.3,0.3-2.1,0.3
		c-1.6,0-2.9-0.6-3.9-1.7c-1-1.1-1.5-2.6-1.6-4.5c0-1.8,0.5-3.2,1.4-4.4c1-1.2,2.4-1.8,4.2-1.8c0.8,0,1.5,0.1,2,0.2
		c0.5,0.1,1,0.3,1.3,0.5l0.7-2.2c-0.9-0.5-2.2-0.8-4-0.9c-2.6,0-4.7,0.8-6.2,2.4c-1.5,1.6-2.3,3.7-2.3,6.3c0,2.5,0.7,4.6,2.2,6
		c1.4,1.5,3.3,2.3,5.7,2.3c0.6,0,1.1-0.1,1.6-0.1c0.5-0.1,0.9-0.1,1.3-0.2c0.8-0.2,1.4-0.4,1.7-0.6L476,147.4L476,147.4z
		 M492.5,142.6c0.1-0.3,0.1-0.8,0.1-1.4c0-0.8-0.1-1.6-0.3-2.5c-0.2-0.9-0.6-1.7-1.1-2.5c-0.5-0.8-1.1-1.4-2-2
		c-0.8-0.5-1.9-0.7-3.2-0.7c-2.3,0-4.1,0.9-5.4,2.5c-1.4,1.6-2,3.7-2,6.3c0,2.5,0.7,4.5,2.1,5.9c1.4,1.5,3.3,2.3,5.7,2.3
		c1.3,0,2.4-0.1,3.2-0.4c0.9-0.2,1.6-0.4,2.1-0.7l-0.5-2.1c-0.5,0.2-1.1,0.4-1.8,0.5c-0.4,0.1-0.7,0.1-1.2,0.2
		c-0.4,0.1-0.9,0.1-1.4,0.1c-1.5,0-2.7-0.5-3.7-1.4c-1-0.9-1.6-2.4-1.7-4.3L492.5,142.6L492.5,142.6z M481.4,140.4
		c0-0.3,0.1-0.6,0.2-0.8c0.1-0.3,0.1-0.6,0.2-0.8c0.2-0.6,0.5-1.1,0.8-1.6c0.7-1.1,1.7-1.6,3.2-1.6c0.8,0,1.5,0.2,2,0.5
		c0.5,0.3,0.9,0.7,1.2,1.2c0.6,1.1,0.8,2.1,0.8,3.2H481.4L481.4,140.4z M502.9,149.1c1.4,0.9,3.3,1.4,5.6,1.5c2.6-0.1,4.6-0.7,5.8-2
		c1.2-1.3,1.9-2.8,1.9-4.6c0-1.7-0.5-3-1.4-4.1c-0.9-1-2.4-1.9-4.2-2.6c-1.5-0.6-2.6-1.2-3.3-1.9c-0.7-0.6-1.1-1.5-1.1-2.5
		c0-0.8,0.3-1.6,1-2.3c0.6-0.7,1.7-1.1,3.2-1.1c1,0,1.9,0.1,2.6,0.3c0.7,0.3,1.2,0.5,1.5,0.7l0.8-2.4c-1-0.7-2.6-1.1-4.8-1.1
		c-2.2,0-3.9,0.6-5.1,1.7c-1.3,1.1-2,2.6-2,4.5c0,1.6,0.5,2.9,1.6,3.9c1,1,2.4,1.9,4.3,2.6c1.5,0.5,2.6,1.2,3.2,1.9
		c0.6,0.7,0.9,1.6,0.9,2.6c0,2.5-1.6,3.8-4.6,3.9c-2,0-3.7-0.5-5.1-1.5L502.9,149.1L502.9,149.1z M520.2,156.9h2.9V148h0.1
		c1,1.7,2.7,2.5,4.9,2.5c1.9,0,3.6-0.7,5-2.2c1.4-1.5,2.1-3.7,2.2-6.6c0-2.5-0.6-4.6-1.9-6c-1.2-1.5-2.9-2.3-4.8-2.3
		c-2.6,0-4.5,1.1-5.6,3.2h-0.1l-0.2-2.8h-2.6c0.1,1.5,0.1,3.3,0.1,5.3V156.9L520.2,156.9z M523.1,140.7c0-0.4,0.1-0.8,0.2-1.2
		c0.3-1.1,0.9-2,1.7-2.7c0.8-0.7,1.7-1,2.7-1c1.6,0,2.7,0.6,3.5,1.8c0.8,1.2,1.2,2.6,1.2,4.3c0,1.9-0.4,3.4-1.3,4.6
		c-0.8,1.2-2,1.8-3.6,1.8c-1,0-1.9-0.3-2.7-1c-0.8-0.6-1.3-1.5-1.6-2.5c-0.1-0.4-0.1-0.8-0.1-1.2V140.7L523.1,140.7z M542,150.2
		v-16.4h-2.9v16.4H542L542,150.2z M540.5,130.8c0.6,0,1-0.2,1.4-0.6c0.3-0.4,0.5-0.8,0.5-1.3c0-0.6-0.2-1-0.5-1.3
		c-0.3-0.4-0.8-0.5-1.3-0.5c-0.6,0-1,0.2-1.3,0.5c-0.4,0.3-0.5,0.8-0.5,1.3c0,0.5,0.2,1,0.5,1.3
		C539.5,130.6,539.9,130.8,540.5,130.8L540.5,130.8L540.5,130.8z M546.6,150.2h2.9v-9.9c0-0.5,0.1-1,0.2-1.4
		c0.3-0.9,0.8-1.6,1.5-2.2c0.7-0.6,1.5-0.9,2.4-0.9c1.4,0,2.3,0.5,2.9,1.4c0.5,1,0.8,2.1,0.8,3.5v9.4h2.9v-9.8
		c0-1.4-0.2-2.6-0.6-3.5c-0.4-0.9-0.8-1.6-1.4-2.1c-0.6-0.5-1.2-0.9-1.8-1.1c-0.6-0.2-1.3-0.3-1.8-0.3c-1.3,0-2.4,0.3-3.3,0.9
		c-0.9,0.6-1.5,1.3-1.9,2.1h-0.1l-0.2-2.7h-2.6c0.1,1.3,0.1,2.8,0.1,4.4V150.2L546.6,150.2z M575.9,126.2v9.7h-0.1
		c-0.3-0.7-0.9-1.3-1.7-1.7c-0.8-0.4-1.8-0.7-3.1-0.7c-1.9,0-3.6,0.8-5,2.3c-1.4,1.5-2.1,3.7-2.1,6.5c0,2.5,0.7,4.5,2,6
		c1.3,1.5,2.9,2.3,4.8,2.3c1.3,0,2.4-0.3,3.3-1c0.9-0.6,1.6-1.3,2-2.3h0.1l0.1,2.8h2.6c-0.1-1.2-0.1-2.7-0.1-4.2v-19.8H575.9
		L575.9,126.2z M575.9,143.3c0,0.5,0,0.9-0.1,1.3c-0.1,0.5-0.3,1-0.6,1.5c-0.3,0.4-0.6,0.8-1,1.1c-0.8,0.7-1.7,1-2.7,1
		c-1.5,0-2.7-0.6-3.5-1.8c-0.8-1.1-1.2-2.6-1.2-4.3c0-1.9,0.4-3.4,1.3-4.5c0.8-1.2,2-1.8,3.5-1.8c1.1,0,2,0.3,2.8,1
		c0.7,0.6,1.2,1.5,1.4,2.4c0.1,0.4,0.1,0.9,0.1,1.3V143.3L575.9,143.3z M583.8,150.2h2.9v-24h-2.9V150.2L583.8,150.2z M604.1,142.6
		c0.1-0.3,0.1-0.8,0.1-1.4c0-0.8-0.1-1.6-0.3-2.5c-0.2-0.9-0.6-1.7-1.1-2.5c-0.5-0.8-1.1-1.4-2-2c-0.8-0.5-1.9-0.7-3.2-0.7
		c-2.3,0-4.1,0.9-5.4,2.5c-1.4,1.6-2,3.7-2,6.3c0,2.5,0.7,4.5,2.1,5.9c1.4,1.5,3.3,2.3,5.7,2.3c1.3,0,2.4-0.1,3.2-0.4
		c0.9-0.2,1.6-0.4,2.1-0.7l-0.5-2.1c-0.5,0.2-1.1,0.4-1.8,0.5c-0.4,0.1-0.7,0.1-1.2,0.2c-0.4,0.1-0.9,0.1-1.4,0.1
		c-1.5,0-2.7-0.5-3.7-1.4c-1-0.9-1.6-2.4-1.7-4.3L604.1,142.6L604.1,142.6z M593,140.4c0-0.3,0.1-0.6,0.2-0.8
		c0.1-0.3,0.1-0.6,0.2-0.8c0.2-0.6,0.5-1.1,0.8-1.6c0.7-1.1,1.7-1.6,3.2-1.6c0.8,0,1.5,0.2,2,0.5c0.5,0.3,0.9,0.7,1.2,1.2
		c0.6,1.1,0.8,2.1,0.8,3.2H593L593,140.4z M606.8,149.4c1.2,0.7,2.7,1.1,4.4,1.1c1.9,0,3.3-0.5,4.4-1.4c1-0.9,1.5-2.1,1.5-3.6
		c0-2.4-1.4-4-4.2-4.9c-1-0.4-1.8-0.8-2.3-1.2c-0.5-0.4-0.7-0.9-0.7-1.6c0-0.6,0.2-1.2,0.7-1.6c0.4-0.4,1.1-0.6,1.9-0.6
		c0.8,0,1.4,0.1,2,0.3c0.6,0.2,1,0.4,1.3,0.6l0.7-2.1c-0.9-0.7-2.2-1-3.9-1c-1.7,0-3,0.5-4,1.4c-1,0.9-1.5,2.1-1.5,3.4
		c0,2,1.4,3.5,4.2,4.7c1,0.4,1.8,0.8,2.3,1.2c0.4,0.5,0.7,1.1,0.7,1.8c0,0.7-0.2,1.3-0.7,1.7c-0.5,0.5-1.3,0.7-2.3,0.7
		c-0.7,0-1.4-0.1-2.1-0.4c-0.7-0.2-1.3-0.5-1.7-0.7L606.8,149.4L606.8,149.4z"/>
	<path class="st2" d="M539.8,71.8c25,0,45.3,20.3,45.5,45.2h-40.8c-0.2-2.5-2.2-4.4-4.8-4.4c-2.5,0-4.6,2-4.8,4.4h-40.8
		C494.4,92.1,514.8,71.8,539.8,71.8L539.8,71.8z"/>
	<path class="st3" d="M472.2,117.4c0-37.2,30.3-67.5,67.5-67.5s67.5,30.3,67.5,67.5"/>
</g>
</svg>
