<svg id="Ebene_1" data-name="Ebene 1" xmlns="http://www.w3.org/2000/svg" width="181" height="70.33" viewBox="0 0 181 70.33"><defs><style>.cls-1{fill:#6f6f6e;}.cls-2{fill:#fdc800;}</style></defs><title>Zeichenfläche 1</title><path class="cls-1" d="M68.21,34.82H60.09a25,25,0,0,0-24.7-24.7V0h-.7V10.12A24.93,24.93,0,0,0,10,34.82H0v.7H10a25,25,0,0,0,24.7,24.7V70.33h.7V60.22a25.15,25.15,0,0,0,24.7-24.7h8.12Zm-16,17.55a24.28,24.28,0,0,1-16.85,7.15v-17h-.7v17a24.33,24.33,0,0,1-24-24h17v-.7h-17a24.24,24.24,0,0,1,24-24v17h.7v-17a24.33,24.33,0,0,1,24,24h-17v.7h17A24.29,24.29,0,0,1,52.23,52.36Z"/><path d="M36.56,42.32V51A15.67,15.67,0,0,0,50.9,36.69H42.21A7.56,7.56,0,0,1,36.56,42.32Z"/><path d="M27.87,36.69H19A16,16,0,0,0,33.51,51V42.32A7.34,7.34,0,0,1,27.87,36.69Z"/><path d="M19,33.64h8.85A7.17,7.17,0,0,1,33.51,28V19.15A16.24,16.24,0,0,0,19,33.64Z"/><path d="M36.56,19.15V28a7.37,7.37,0,0,1,5.64,5.64H50.9A16,16,0,0,0,36.56,19.15Z"/><path d="M165.14,19.15a14.26,14.26,0,0,0-7.32,2.29v-7H149V35.17a16,16,0,1,0,16.17-16ZM165,42.49a7.32,7.32,0,0,1-7.32-7.32A7.23,7.23,0,0,1,165,27.84a7.32,7.32,0,0,1,7.32,7.32A7.42,7.42,0,0,1,165,42.49Z"/><rect x="89.03" y="14.42" width="9.15" height="36.14"/><rect x="102.45" y="19.76" width="9.14" height="30.8"/><rect x="102.45" y="14.42" width="9.14" height="2.89"/><path d="M130.36,19.15a16,16,0,0,0,0,32,16.86,16.86,0,0,0,11.13-4l-5-6.86a9.28,9.28,0,0,1-6.1,2.13,7.17,7.17,0,0,1-6.56-4.42h22a18.61,18.61,0,0,0,.31-2.9A15.85,15.85,0,0,0,130.36,19.15ZM123.8,32.27a7.07,7.07,0,0,1,13.12,0Z"/><polygon points="80.79 14.42 71.8 14.42 71.8 50.42 80.79 50.42 80.79 28.76 86.13 28.76 86.13 19.76 80.79 19.76 80.79 14.42"/><path d="M54.41,33.49V50.42h8.85V35a5.83,5.83,0,0,1,5.19-6.25h.31v-9a13.1,13.1,0,0,0-2.59.15A13.43,13.43,0,0,0,54.41,33.49Z"/><polygon class="cls-1" points="54.26 54.53 56.24 54.53 56.24 61.55 57 61.55 57 54.53 58.98 54.53 58.98 53.76 54.26 53.76 54.26 54.53"/><path class="cls-1" d="M62.8,55.76a2,2,0,0,0-1.83.91V53.76h-.91v7.79H61v-3.2A1.86,1.86,0,0,1,61.42,57a1.58,1.58,0,0,1,1.22-.61A1.93,1.93,0,0,1,64,57a2.27,2.27,0,0,1,.46,1.53v3h.76v-3a3.82,3.82,0,0,0-.46-2A2.64,2.64,0,0,0,62.8,55.76Z"/><path class="cls-1" d="M71.64,56.52a3.31,3.31,0,0,0-2.14-.76,2.9,2.9,0,0,0,0,5.8,3.17,3.17,0,0,0,1.68-.46,3.58,3.58,0,0,0,1.22-1.37h-.91a1.93,1.93,0,0,1-2,1.07,2,2,0,0,1-2.13-2h5.19A3.36,3.36,0,0,0,71.64,56.52ZM67.37,58.2a2.15,2.15,0,0,1,2.13-1.83,2,2,0,0,1,2.14,1.83Z"/><path class="cls-1" d="M80.95,54.23a4,4,0,0,0-2.13-.47H76.68v7.79h.92v-3.2h1.22a4,4,0,0,0,2.13-.46,2.52,2.52,0,0,0,.76-1.83A2.29,2.29,0,0,0,80.95,54.23Zm-.61,3a2.37,2.37,0,0,1-1.53.29H77.59v-3h1.22a2.51,2.51,0,0,1,1.53.3,1.37,1.37,0,0,1,.61,1.22A1.58,1.58,0,0,1,80.34,57.28Z"/><path class="cls-1" d="M83.69,56.82v-.92h-.76v5.64h.76v-3c0-1.22.61-2,1.68-2h.15v-.61A2,2,0,0,0,83.69,56.82Z"/><path class="cls-1" d="M88.88,55.76a2.85,2.85,0,0,0-3,2.9,2.93,2.93,0,0,0,3,2.9,3.05,3.05,0,0,0,1.53-.46,3.58,3.58,0,0,0,1.22-1.37h-.76a2.22,2.22,0,0,1-2,1.07,2.08,2.08,0,0,1-2.29-2h5.19a2.78,2.78,0,0,0-.91-2.29A2.91,2.91,0,0,0,88.88,55.76ZM86.59,58.2a2.32,2.32,0,0,1,2.29-1.83A2.15,2.15,0,0,1,91,58.2Z"/><path class="cls-1" d="M95.74,56.37a2.1,2.1,0,0,1,2,1.37h.91a3.13,3.13,0,0,0-2.9-2,2.9,2.9,0,1,0,0,5.8,3.2,3.2,0,0,0,2.9-2h-.91a2,2,0,0,1-2,1.22A2.26,2.26,0,0,1,94.22,57,2,2,0,0,1,95.74,56.37Z"/><rect class="cls-1" x="100.01" y="53.76" width="0.92" height="1.08"/><rect class="cls-1" x="100.01" y="55.91" width="0.92" height="5.64"/><path class="cls-1" d="M104.13,58.2c-.61-.15-1.07-.46-1.07-.92a.88.88,0,0,1,.91-.91c.61,0,1.07.3,1.07.91h.76a1.56,1.56,0,0,0-1.68-1.52c-1.07,0-2,.61-2,1.52s.76,1.22,1.52,1.37c1.07.31,1.53.61,1.53,1.22a1,1,0,0,1-1.07,1.07,1.08,1.08,0,0,1-1.22-1.07H102a1.86,1.86,0,0,0,2,1.68,1.81,1.81,0,0,0,2-1.83C106,58.65,105,58.35,104.13,58.2Z"/><rect class="cls-1" x="107.48" y="55.91" width="0.76" height="5.64"/><rect class="cls-1" x="107.48" y="53.76" width="0.76" height="1.08"/><path class="cls-1" d="M112.52,55.76a2.9,2.9,0,1,0,3,2.9A2.93,2.93,0,0,0,112.52,55.76Zm0,5a2.22,2.22,0,0,1-2.29-2.14,2.29,2.29,0,0,1,4.58,0A2.22,2.22,0,0,1,112.52,60.79Z"/><path class="cls-1" d="M119.84,55.76a2.18,2.18,0,0,0-2,1.07v-.92h-.92v5.64h.92v-3.2c0-1.22.61-2,1.68-2,1.22,0,1.83.91,1.83,2.14v3h.76v-3.2C122.13,57,121.52,55.76,119.84,55.76Z"/><path class="cls-1" d="M130.67,54.38a3.32,3.32,0,0,1,2.59,1.52h.91a4,4,0,1,0-3.51,5.64,3.76,3.76,0,0,0,3.51-2.29h-.91a3.15,3.15,0,1,1-2.59-4.88Z"/><path class="cls-1" d="M138.29,55.76a2.91,2.91,0,1,0,0,5.8,2.9,2.9,0,1,0,0-5.8Zm0,5A2.13,2.13,0,0,1,136,58.65a2.16,2.16,0,0,1,2.29-2.29,2.13,2.13,0,0,1,2.14,2.29A2.09,2.09,0,0,1,138.29,60.79Z"/><path class="cls-1" d="M149.12,55.76a1.61,1.61,0,0,0-1.53.61c-.3.15-.46.3-.46.46,0,0-.3-.3-.3-.46a2.19,2.19,0,0,0-1.53-.61,2.39,2.39,0,0,0-1.83.91v-.76h-.76v5.64h.76v-3.2a1.86,1.86,0,0,1,.46-1.37,1.28,1.28,0,0,1,1.07-.61,1.58,1.58,0,0,1,1.22.61,3,3,0,0,1,.31,1.37v3.2h.91v-3.2a2,2,0,0,1,.3-1.37,1,1,0,0,1,1.07-.61,1.5,1.5,0,0,1,1.22.46,2.5,2.5,0,0,1,.31,1.52v3.2h.91v-3.2a2.66,2.66,0,0,0-.76-2.14A2.13,2.13,0,0,0,149.12,55.76Z"/><path class="cls-1" d="M156.14,55.76A2.51,2.51,0,0,0,153.85,57V55.91h-.76v7.78h.76V60.18a2.53,2.53,0,0,0,2.29,1.37,2.9,2.9,0,1,0,0-5.8Zm-.15,5a2,2,0,0,1-1.52-.61,2.71,2.71,0,0,1-.61-1.53,3.2,3.2,0,0,1,.61-1.68,2.7,2.7,0,0,1,1.52-.61,2.21,2.21,0,1,1,0,4.42Z"/><path class="cls-1" d="M165.29,57A2.45,2.45,0,0,0,163,55.76a2.85,2.85,0,0,0-3.05,2.9,2.93,2.93,0,0,0,3.05,2.9,2.37,2.37,0,0,0,2.29-1.37v1.37h.91V55.91h-.91Zm-.15,2.44a2.17,2.17,0,0,1-2,1.37,2.12,2.12,0,0,1-2.29-2.14,2.22,2.22,0,0,1,4.27-.91,1.93,1.93,0,0,1,.15.91A1.14,1.14,0,0,1,165.14,59.42Z"/><path class="cls-1" d="M170.78,55.76a2.19,2.19,0,0,0-2,1.07v-.92h-.91v5.64h.91v-3.2c0-1.22.61-2,1.68-2,1.22,0,1.83.91,1.83,2.14v3h.76v-3.2C173.07,57,172.46,55.76,170.78,55.76Z"/><polygon class="cls-1" points="178.41 55.91 176.58 60.48 174.9 55.91 173.98 55.91 176.27 61.39 175.2 63.69 176.12 63.69 179.32 55.91 178.41 55.91"/><path class="cls-2" d="M35,40a4.88,4.88,0,1,0-4.88-4.88A4.82,4.82,0,0,0,35,40Z"/></svg>